<svg width="127.998" height="152.219" viewBox="0 0 127.998 152.219"><svg xmlns="http://www.w3.org/2000/svg" xmlns:xlink="http://www.w3.org/1999/xlink" xml:space="preserve" width="127.998" height="152.219" class="icon-icon-0" data-fill-palette-color="accent" viewBox="6.282 1.415 51.437 61.17"><g fill="#20c997" data-fill-palette-color="accent"><path d="M55.302 16.374a5.215 5.215 0 0 1-.918 2.935 28.625 28.625 0 0 0-7.909-6.883 5.316 5.316 0 0 1 3.538-1.32c2.929.01 5.297 2.368 5.289 5.268zM8.306 16.374a5.215 5.215 0 0 0 .918 2.935 28.615 28.615 0 0 1 7.91-6.883 5.316 5.316 0 0 0-3.538-1.32c-2.93.01-5.298 2.368-5.29 5.268z" data-fill-palette-color="accent"/><path d="M57.287 32.516c-2.109-10.926-9.902-18.724-20.849-20.86-2.226-.434-2.352-.831-2.138-3.104l.056-.598h.603c.389 0 .773.003 1.151.005.368.003.73.005 1.09.005.521 0 .947-.005 1.347-.018 1.143-.037 1.68-.49 1.797-1.519.135-1.162.14-2.4.021-3.681-.045-.484-.28-1.299-1.35-1.305a930.29 930.29 0 0 0-7.052-.026c-2.453 0-4.731.011-6.96.032-.969.008-1.619.693-1.659 1.746a44.615 44.615 0 0 0-.013 2.003l.003.347c.011 1.72.696 2.395 2.443 2.413.868.008 1.738.005 2.599.003.386 0 .77-.003 1.151-.003h.598l.061.595c.222 2.218.09 2.641-2.051 2.972-.183.026-.36.066-.548.109-.159.037-.318.071-.476.101-6.533 1.193-12.493 5.139-16.348 10.82-3.901 5.75-5.319 12.54-4.001 19.116 2.472 12.315 12.847 20.916 25.232 20.916 1.826 0 3.676-.191 5.499-.569 13.284-2.747 22.35-16.256 19.794-29.5zM46.803 51.873c-3.977 3.959-9.212 6.139-14.742 6.139h-.194c-11.596-.106-20.984-9.645-20.931-21.265.053-11.474 9.505-20.81 21.074-20.81l.119.003c5.655.032 10.926 2.239 14.845 6.219 3.916 3.977 6.06 9.296 6.036 14.977-.023 5.541-2.227 10.776-6.207 14.737z" data-fill-palette-color="accent"/><path d="M32 19.936c-9.436 0-17.113 7.677-17.113 17.114a1.017 1.017 0 1 0 2.034 0c0-8.315 6.765-15.079 15.079-15.079 8.315 0 15.079 6.765 15.079 15.079 0 8.315-6.765 15.079-15.079 15.079a15.001 15.001 0 0 1-11.753-5.637l1.21-.905a.792.792 0 0 0-.162-1.362l-4.825-2.07a.792.792 0 0 0-1.098.821l.62 5.214a.792.792 0 0 0 1.26.541l1.364-1.019a17.03 17.03 0 0 0 13.385 6.452c9.437 0 17.114-7.677 17.114-17.113-.001-9.438-7.679-17.115-17.115-17.115z" data-fill-palette-color="accent"/><path d="M31.224 28.031v-2.843h1.785v2.708c.706.12 1.386.187 2.038.36.535.142 1.038.405 1.548.632.066.029.139.184.116.246-.217.58-.454 1.153-.696 1.753a6.27 6.27 0 0 0-2.222-.819c-.936-.154-1.874-.229-2.794.088-.926.319-1.544.945-1.701 1.924-.155.968.141 1.822.987 2.355.706.446 1.468.817 2.236 1.148.996.43 1.984.86 2.872 1.493 1.598 1.14 2.27 2.702 2.005 4.623-.255 1.846-1.354 3.084-3.045 3.802-.476.202-.987.319-1.519.486v2.923h-1.906v-2.821c-.66-.095-1.296-.161-1.921-.283a7.246 7.246 0 0 1-2.29-.873c-.172-.101-.207-.196-.135-.384.202-.532.382-1.071.582-1.641.16.087.297.162.436.236 1.233.659 2.545 1.037 3.947.981a4.698 4.698 0 0 0 1.547-.319c2.114-.854 2.431-3.455.618-4.899-.73-.582-1.578-.943-2.434-1.29-1.071-.434-2.097-.942-3.002-1.683-2.125-1.738-1.902-5.073.216-6.719.7-.544 1.49-.895 2.351-1.093.115-.026.23-.055.381-.091z" data-fill-palette-color="accent"/></g></svg></svg>